<?xml version="1.0" standalone="no"?>
<!DOCTYPE svg PUBLIC "-//W3C//DTD SVG 20010904//EN"
 "http://www.w3.org/TR/2001/REC-SVG-20010904/DTD/svg10.dtd">
<svg version="1.0" xmlns="http://www.w3.org/2000/svg"
 width="260.000000pt" height="260.000000pt" viewBox="0 0 260.000000 260.000000"
 preserveAspectRatio="xMidYMid meet">
<metadata>
Created by potrace 1.11, written by Peter Selinger 2001-2013
</metadata>
<g transform="translate(0.000000,260.000000) scale(0.100000,-0.100000)"
fill="#000000" stroke="none">
<path d="M0 1300 l0 -1300 1300 0 1300 0 0 1300 0 1300 -1300 0 -1300 0 0
-1300z m1660 883 c-1 -5 -9 -18 -19 -30 -19 -23 -20 -23 -339 -23 l-321 0 -21
30 -21 30 360 0 c199 0 361 -3 361 -7z m-197 -200 c-90 -2 -236 -2 -325 0 -90
1 -17 3 162 3 179 0 252 -2 163 -3z m0 -170 c-90 -2 -236 -2 -325 0 -90 1 -17
3 162 3 179 0 252 -2 163 -3z m0 -170 c-90 -2 -236 -2 -325 0 -90 1 -17 3 162
3 179 0 252 -2 163 -3z m0 -170 c-90 -2 -236 -2 -325 0 -90 1 -17 3 162 3 179
0 252 -2 163 -3z m157 -173 l0 -30 -320 0 -320 0 0 23 c0 13 3 27 7 30 3 4
147 7 320 7 l313 0 0 -30z m-157 -177 c-90 -2 -236 -2 -325 0 -90 1 -17 3 162
3 179 0 252 -2 163 -3z m0 -170 c-90 -2 -236 -2 -325 0 -90 1 -17 3 162 3 179
0 252 -2 163 -3z m0 -170 c-90 -2 -236 -2 -325 0 -90 1 -17 3 162 3 179 0 252
-2 163 -3z m0 -170 c-90 -2 -236 -2 -325 0 -90 1 -17 3 162 3 179 0 252 -2
163 -3z m174 -165 c13 -12 23 -25 23 -30 0 -4 -162 -8 -361 -8 l-360 0 21 30
21 30 317 0 c310 0 316 0 339 -22z"/>
</g>
</svg>
