<?xml version="1.0" standalone="no"?>
<!DOCTYPE svg PUBLIC "-//W3C//DTD SVG 20010904//EN"
 "http://www.w3.org/TR/2001/REC-SVG-20010904/DTD/svg10.dtd">
<svg version="1.0" xmlns="http://www.w3.org/2000/svg"
 width="186.000000pt" height="186.000000pt" viewBox="0 0 186.000000 186.000000"
 preserveAspectRatio="xMidYMid meet">
<metadata>
Created by potrace 1.11, written by Peter Selinger 2001-2013
</metadata>
<g transform="translate(0.000000,186.000000) scale(0.100000,-0.100000)"
fill="#000000" stroke="none">
<path d="M660 1630 c-11 -11 -20 -33 -20 -50 0 -23 4 -30 20 -30 11 0 20 -4
20 -10 0 -5 -2 -10 -4 -10 -2 0 -12 -3 -21 -6 -9 -4 -15 -3 -13 2 2 7 -26 70
-37 82 -4 5 -48 -21 -56 -32 -4 -5 -16 -6 -27 -4 -21 6 -58 -23 -46 -34 3 -4
0 -17 -7 -30 -7 -12 -13 -29 -14 -37 0 -19 -25 -27 -25 -8 0 21 -45 48 -58 35
-6 -6 -8 -17 -5 -24 3 -8 -1 -14 -11 -14 -9 0 -21 12 -26 26 l-10 26 -25 -26
c-14 -15 -25 -32 -25 -37 0 -6 -5 -7 -11 -3 -6 4 -9 -1 -8 -12 2 -11 0 -25 -4
-32 -6 -8 1 -16 20 -25 l29 -12 -33 -28 c-32 -28 -32 -28 -43 -7 -7 13 -17 19
-27 16 -8 -3 -21 1 -29 9 -9 8 -26 15 -39 15 -18 0 -22 -4 -18 -20 4 -14 0
-20 -11 -20 -18 0 -21 -11 -7 -25 11 -11 -34 -57 -45 -46 -4 3 -1 -4 5 -16 6
-13 18 -23 26 -23 17 0 20 -16 5 -25 -6 -4 -10 -12 -9 -18 3 -25 -1 -38 -10
-32 -5 3 -21 0 -35 -6 -20 -9 -23 -15 -16 -30 7 -12 6 -19 -3 -23 -8 -3 -5
-11 10 -24 20 -18 21 -21 6 -27 -14 -5 -15 -8 -4 -15 8 -4 23 -7 33 -5 15 3
16 1 8 -16 -7 -13 -7 -19 0 -19 17 0 11 -18 -9 -25 -13 -4 -17 -12 -14 -25 4
-14 0 -20 -10 -20 -31 0 -27 -19 8 -36 27 -13 33 -19 25 -30 -9 -10 -1 -12 42
-7 29 3 62 12 73 19 25 18 86 19 82 2 -1 -7 5 -11 13 -9 44 12 107 7 132 -11
15 -10 30 -17 35 -16 4 1 23 -3 41 -10 22 -7 31 -16 26 -23 -5 -9 -2 -10 9 -6
10 4 17 1 17 -5 0 -6 3 -9 6 -6 3 4 20 2 37 -3 18 -6 46 -12 62 -14 80 -11
111 -18 116 -28 14 -21 28 3 18 31 -6 15 -6 23 -1 17 5 -5 13 -20 17 -33 5
-17 2 -24 -16 -30 -21 -8 -21 -9 13 -30 20 -12 40 -22 46 -22 15 0 38 -77 41
-134 1 -27 6 -71 12 -99 16 -85 12 -127 -17 -164 -22 -29 -31 -33 -72 -34 -26
0 -63 -7 -82 -14 -32 -12 -21 -13 119 -13 85 0 149 3 142 7 -6 4 -13 20 -15
34 -1 15 -6 30 -9 34 -4 3 -7 23 -7 44 0 21 -5 41 -10 44 -8 5 -8 11 0 20 8
10 7 14 -2 18 -9 4 -9 6 -1 6 9 1 8 12 -3 43 -8 23 -12 48 -9 55 2 8 -2 30
-10 51 -7 20 -13 48 -12 62 2 18 -7 32 -32 51 -19 15 -40 25 -47 22 -7 -2 -15
0 -19 6 -10 17 51 13 69 -4 8 -8 21 -15 29 -15 21 0 47 33 49 63 1 14 6 23 10
21 16 -10 38 68 32 120 -4 37 -2 47 5 36 9 -13 11 -13 11 3 0 9 7 17 15 17 8
0 15 -9 15 -20 0 -21 35 -41 57 -33 8 3 11 -12 9 -54 -1 -32 2 -64 8 -72 8
-11 8 -13 -1 -7 -8 4 -13 2 -14 -6 -2 -43 -18 -88 -44 -123 -12 -16 -30 -50
-40 -75 -22 -53 -35 -71 -35 -47 0 9 -7 17 -15 17 -8 0 -15 -5 -15 -11 0 -5 5
-7 10 -4 6 3 10 -2 10 -12 1 -19 22 -53 34 -53 3 0 6 7 6 15 0 8 4 15 10 15 5
0 12 12 16 28 12 56 39 112 52 107 6 -2 12 0 12 6 0 6 4 8 9 5 5 -3 7 -15 4
-26 -3 -11 -8 -18 -12 -16 -3 2 -7 -8 -8 -22 -1 -21 1 -23 8 -9 5 9 16 34 24
56 13 37 12 39 -8 50 -12 6 -14 9 -5 7 17 -5 24 7 33 52 2 11 8 36 14 56 8 32
8 36 -4 26 -8 -7 -12 -17 -8 -23 3 -6 1 -7 -6 -3 -7 5 -10 24 -6 54 7 59 25
80 25 29 0 -20 5 -37 10 -37 6 0 10 9 10 19 0 13 25 36 76 70 82 55 99 61 89
32 -8 -25 19 -34 64 -21 29 8 35 6 56 -18 l23 -27 -24 -13 c-13 -7 -24 -17
-24 -21 0 -5 -8 -7 -19 -4 -13 3 -17 11 -13 26 4 20 3 19 -16 -4 -12 -15 -26
-38 -31 -52 -8 -21 -7 -26 10 -30 20 -5 44 -3 77 7 14 5 17 -2 18 -35 1 -25
-3 -38 -10 -36 -6 2 -10 11 -8 20 2 11 -3 14 -18 10 -27 -7 -16 -21 34 -42 44
-19 90 -12 112 17 9 13 12 13 17 -2 4 -9 13 -16 21 -16 8 0 16 -6 19 -12 3
-10 10 -8 25 6 12 10 19 23 15 29 -4 6 -1 7 7 2 8 -5 18 -1 26 10 12 15 11 20
-4 32 -9 8 -11 12 -4 8 6 -3 12 -1 12 4 0 6 7 11 15 11 19 0 19 15 0 44 -14
21 -14 24 0 30 10 4 13 11 8 18 -4 7 -6 20 -5 29 3 17 -26 31 -65 32 -12 1
-19 5 -16 10 3 4 11 6 19 3 8 -3 14 -1 14 4 0 19 -57 10 -76 -11 -18 -20 -18
-22 -1 -34 9 -6 17 -18 17 -24 0 -8 -9 -5 -23 6 -23 17 -26 53 -5 53 6 0 4 8
-3 17 -12 15 -12 16 7 11 12 -3 28 -2 35 3 10 6 8 9 -9 9 -13 0 -22 5 -20 11
2 6 8 11 13 11 6 0 15 4 22 10 8 7 19 5 33 -5 l22 -15 -24 -8 c-17 -5 -19 -8
-8 -13 8 -3 37 -19 64 -36 33 -19 51 -25 54 -17 2 7 12 12 22 12 13 0 18 7 17
20 -1 11 -6 19 -12 16 -6 -2 -12 5 -12 15 -1 11 5 19 13 19 17 0 17 4 2 47
-10 28 -17 33 -44 33 -37 0 -56 -19 -56 -56 0 -18 -3 -22 -9 -13 -4 8 -16 14
-26 14 -10 0 -17 6 -15 14 1 7 -3 20 -10 29 -11 13 -9 15 17 9 20 -3 40 1 62
14 20 13 34 16 38 9 10 -16 51 -12 75 8 19 15 21 24 15 51 -6 29 -10 32 -34
28 -15 -3 -34 1 -45 9 -17 12 -15 18 6 16 3 -1 11 5 18 13 9 11 9 18 -4 30 -9
9 -16 21 -16 27 0 6 -11 8 -26 5 l-25 -4 26 27 c30 31 26 53 -8 48 -14 -2 -22
2 -22 12 0 8 -10 16 -22 18 -13 2 -23 7 -23 11 0 5 -10 8 -22 7 -17 -1 -24 -9
-29 -31 -5 -26 -7 -28 -13 -10 -14 36 -14 41 0 60 20 27 17 40 -11 59 -23 15
-29 15 -55 2 -29 -14 -30 -14 -24 10 5 18 1 26 -12 31 -11 5 -19 15 -19 23 0
11 -11 15 -37 15 -20 -1 -34 3 -32 7 3 4 -5 8 -18 8 -13 0 -30 6 -37 13 -11
10 -12 9 -6 -2 6 -10 4 -12 -4 -7 -7 5 -10 14 -7 22 3 8 1 14 -5 14 -6 0 -18
8 -27 17 -16 16 -17 15 -21 -2 -2 -14 -5 -15 -11 -4 -10 15 -79 23 -81 8 -1
-5 -2 -15 -3 -21 -1 -7 2 -19 8 -26 7 -10 5 -16 -5 -23 -10 -6 -17 -3 -23 11
-5 11 -12 20 -15 21 -40 5 -53 3 -60 -9 -6 -11 -10 -8 -15 12 -3 14 -11 26
-17 26 -6 0 -8 -4 -5 -9 3 -4 -6 -6 -19 -3 -16 3 -25 0 -25 -8 0 -7 -7 -10
-15 -6 -8 3 -27 1 -41 -5 -31 -11 -37 -8 -28 14 3 9 12 13 20 10 10 -3 12 0 8
10 -6 18 -45 17 -67 -2 -12 -9 -16 -8 -22 6 -6 17 -7 17 -16 1 -6 -10 -19 -18
-30 -18 -11 0 -18 -4 -14 -9 3 -5 1 -12 -5 -16 -6 -4 -8 -11 -5 -16 4 -5 -1
-9 -9 -9 -9 0 -16 -7 -16 -15 0 -8 5 -15 10 -15 6 0 10 -4 10 -10 0 -5 -13 -1
-30 8 -32 18 -35 28 -20 52 11 18 -6 41 -26 33 -7 -3 -17 2 -20 11 -8 21 -20
20 -44 -4z m735 -81 c11 -17 -1 -21 -15 -4 -8 9 -8 15 -2 15 6 0 14 -5 17 -11z
m-665 -30 c0 -6 -4 -8 -9 -4 -5 3 -11 -3 -13 -12 -3 -11 -6 -5 -9 14 -5 28 -3
31 13 22 10 -5 18 -14 18 -20z m40 7 c0 -2 -7 -6 -15 -10 -8 -3 -15 -1 -15 4
0 6 7 10 15 10 8 0 15 -2 15 -4z m271 -39 c10 3 19 10 19 15 0 5 5 6 11 2 18
-11 -41 -43 -70 -37 -14 3 -32 6 -39 7 -13 2 -32 24 -32 37 0 3 11 4 25 1 17
-3 25 0 25 9 0 7 9 2 21 -13 14 -17 27 -24 40 -21z m-151 12 c0 -6 -10 -9 -22
-8 -13 2 -30 -1 -38 -6 -13 -8 -13 -7 -1 8 15 19 61 23 61 6z m487 -16 c-1
-19 3 -28 13 -28 19 0 32 -30 24 -60 -4 -16 -11 -21 -25 -18 -10 3 -17 8 -15
12 3 3 -6 29 -19 56 -26 52 -25 65 5 65 15 0 19 -6 17 -27z m-247 1 c0 -8 5
-12 10 -9 16 10 12 -11 -5 -25 -15 -13 -20 -5 -16 27 1 6 -6 14 -16 16 -14 4
-13 5 5 6 14 1 22 -5 22 -15z m-196 -10 c3 -9 6 -21 6 -27 0 -16 -23 9 -26 28
-3 20 12 19 20 -1z m175 -39 c0 -5 -4 -3 -9 5 -5 8 -9 22 -9 30 0 16 17 -16
18 -35z m166 35 c3 -5 -1 -10 -9 -10 -9 0 -16 5 -16 10 0 6 4 10 9 10 6 0 13
-4 16 -10z m46 -4 c0 -3 6 -24 14 -46 8 -22 10 -42 5 -45 -4 -3 -13 7 -18 22
-7 18 -11 22 -11 11 -1 -24 -16 -23 -18 1 -1 11 5 22 14 25 11 5 13 10 4 20
-6 7 -8 16 -4 19 7 7 15 3 14 -7z m-701 -13 c0 -7 -7 -10 -15 -7 -8 4 -15 3
-15 0 0 -4 11 -11 25 -16 29 -11 34 -28 8 -26 -22 1 -31 -51 -12 -68 9 -8 10
-8 4 3 -6 11 -4 13 9 8 10 -4 20 -7 22 -7 3 0 3 -4 0 -8 -3 -5 6 -15 19 -22
28 -15 33 -30 9 -30 -9 0 -12 -5 -8 -12 4 -7 3 -8 -4 -4 -6 4 -9 13 -5 21 3 8
1 15 -5 15 -5 0 -14 -16 -19 -37 -8 -34 -9 -35 -25 -19 -12 11 -16 29 -14 54
2 20 -2 46 -8 57 -6 11 -11 26 -11 34 0 8 -6 16 -13 19 -7 2 -12 0 -11 -5 5
-26 -2 -35 -23 -30 -21 5 -21 5 -5 -7 9 -7 17 -21 17 -31 0 -16 -5 -14 -30 10
l-30 29 25 16 c19 11 25 21 22 38 -4 22 -4 22 16 5 11 -10 17 -12 13 -5 -4 7
-1 12 8 12 9 0 16 6 16 13 0 7 9 13 20 13 11 0 20 -6 20 -13z m96 -12 c-6 -9
16 -26 34 -26 8 0 18 7 22 15 5 10 7 6 5 -10 -1 -16 3 -24 11 -22 6 1 12 -4
12 -10 0 -9 4 -8 11 2 9 12 10 12 5 -3 -3 -10 -6 -28 -6 -38 0 -11 -4 -17 -10
-14 -5 3 -10 16 -10 28 0 17 -2 19 -9 8 -7 -11 -11 -10 -20 7 -6 12 -17 19
-24 16 -18 -6 -52 32 -37 41 8 5 7 11 -2 23 -12 15 -11 16 4 3 10 -7 16 -16
14 -20z m374 -17 c0 -15 -6 -24 -15 -24 -8 0 -15 9 -15 19 0 14 -6 19 -20 16
-11 -2 -20 0 -20 6 0 5 9 9 20 9 11 0 20 5 20 11 0 8 5 8 15 -1 8 -7 15 -23
15 -36z m90 36 c-8 -5 -11 -10 -6 -10 6 0 2 -6 -9 -13 -16 -12 -16 -18 -7 -47
7 -18 12 -34 12 -34 0 -1 -9 -2 -20 -3 -11 -1 -20 4 -20 10 0 7 -3 21 -6 33
-6 24 32 74 56 74 13 0 13 -1 0 -10z m290 -15 c11 4 20 0 24 -11 9 -23 4 -25
-25 -10 -13 7 -30 11 -36 9 -7 -3 -9 4 -6 18 5 19 7 19 15 5 6 -10 17 -15 28
-11z m-553 -24 c-5 -25 -2 -31 21 -39 34 -11 92 3 92 23 0 8 5 15 10 15 10 0
14 -15 11 -34 -1 -5 5 -6 13 -3 20 8 29 -8 21 -33 -9 -28 -29 -25 -50 6 -11
18 -20 23 -24 15 -4 -6 -15 -9 -25 -5 -11 4 -16 2 -14 -7 3 -16 -13 -14 -59 8
-18 8 -33 21 -33 28 0 7 -3 21 -7 31 -5 13 -3 16 10 11 9 -3 19 -2 22 3 12 19
17 10 12 -19z m-84 2 c-6 -16 -5 -16 10 -4 14 11 18 11 23 -3 9 -22 4 -25 -23
-15 -22 8 -33 39 -13 39 5 0 6 -8 3 -17z m744 -15 c-3 -8 -6 -5 -6 6 -1 11 2
17 5 13 3 -3 4 -12 1 -19z m-1154 -1 c3 -8 2 -20 -3 -26 -5 -9 -7 -4 -7 13 0
29 2 32 10 13z m813 -24 c-2 -3 -10 -5 -18 -7 -7 -1 -19 -5 -25 -9 -19 -12
-16 0 5 21 12 13 21 16 30 9 7 -5 11 -12 8 -14z m-116 -16 c0 -12 -5 -29 -10
-37 -8 -11 -10 -4 -8 27 2 42 18 51 18 10z m-255 11 c27 -12 32 -24 13 -31
-10 -4 -10 -8 1 -15 13 -9 13 -13 0 -28 -13 -16 -12 -16 9 -5 12 6 22 9 22 5
0 -9 -43 -43 -55 -44 -5 0 -4 4 3 8 14 9 6 42 -10 42 -5 0 -6 -4 -3 -10 9 -15
-7 -12 -29 5 -11 8 -14 16 -8 16 7 1 17 3 22 4 6 1 15 3 22 4 7 1 5 8 -5 19
-16 17 -23 42 -12 42 2 0 16 -5 30 -12z m-124 -19 c22 -22 20 -37 -3 -23 -19
12 -39 14 -32 3 3 -5 18 -16 34 -24 21 -11 27 -20 23 -35 -3 -13 -11 -19 -19
-16 -8 3 -14 -1 -14 -9 0 -8 -5 -15 -11 -15 -5 0 -9 8 -8 18 3 32 -1 39 -26
50 -31 14 -32 35 -2 55 29 21 33 21 58 -4z m-406 1 c3 -5 -1 -10 -10 -10 -9 0
-13 5 -10 10 3 6 8 10 10 10 2 0 7 -4 10 -10z m56 -12 c2 -31 4 -34 22 -52 9
-10 17 -22 17 -27 0 -14 -47 -29 -67 -23 -14 5 -15 4 -4 -4 12 -8 12 -13 0
-30 -13 -18 -17 -19 -47 -7 -22 10 -30 19 -26 29 3 9 10 16 14 16 5 0 6 8 3
19 -4 15 0 18 20 16 18 -2 27 3 30 17 3 11 10 17 16 14 5 -4 12 -2 16 4 3 5
-1 10 -9 10 -9 0 -16 2 -16 4 0 2 -2 11 -5 18 -4 9 2 14 15 14 12 0 20 -7 21
-18z m39 -4 c0 -8 -5 -12 -10 -9 -6 4 -8 11 -5 16 9 14 15 11 15 -7z m80 -15
c21 -29 21 -31 4 -43 -26 -19 -47 -10 -33 15 7 13 6 25 -1 39 -17 32 6 24 30
-11z m70 24 c0 -14 -19 -38 -25 -32 -8 8 5 39 16 39 5 0 9 -3 9 -7z m810 -23
c-36 -32 -32 -61 4 -34 11 8 14 14 7 14 -7 0 -9 5 -6 10 11 19 32 10 30 -12
-1 -14 -8 -23 -18 -23 -8 0 -19 -4 -24 -9 -4 -5 -3 -6 5 -2 6 4 12 2 12 -3 0
-6 -2 -11 -4 -11 -2 0 -12 -3 -20 -6 -12 -5 -15 -2 -10 10 7 17 -11 22 -21 6
-4 -6 -10 -8 -15 -5 -11 7 9 55 22 55 5 0 6 5 3 10 -3 6 4 14 17 19 44 18 51
11 18 -19z m-342 -5 c26 -23 28 -35 7 -35 -8 0 -15 8 -15 17 0 9 -3 13 -7 10
-7 -8 -33 11 -33 23 0 13 23 6 48 -15z m492 5 c0 -6 -16 -20 -36 -32 -26 -15
-32 -23 -22 -29 10 -6 10 -11 1 -20 -8 -8 -14 -7 -21 7 -14 27 -24 76 -15 71
4 -2 16 -2 26 2 31 11 67 11 67 1z m-570 -20 c13 -8 13 -9 0 -14 -36 -11 -69
5 -37 17 18 8 21 8 37 -3z m216 -24 c6 -20 7 -41 2 -50 -11 -19 -71 -19 -64 1
3 8 1 11 -4 8 -12 -7 -13 25 -2 41 7 10 42 33 52 34 3 0 10 -15 16 -34z m378
13 c-3 -5 -14 -9 -26 -9 -17 0 -18 3 -8 14 12 15 44 10 34 -5z m-1004 -24
c-10 -12 -9 -15 8 -15 11 0 22 -7 26 -15 8 -22 55 -42 64 -27 5 7 13 8 22 2
13 -8 12 -10 -2 -10 -25 0 -23 -27 2 -35 11 -3 25 -16 31 -27 8 -15 13 -17 19
-8 5 8 10 9 14 2 11 -19 -34 -25 -54 -7 -12 11 -20 13 -25 6 -3 -6 -17 -11
-31 -11 -14 0 -23 -4 -20 -8 2 -4 1 -14 -4 -22 -12 -19 33 -60 62 -57 12 1 32
13 46 27 20 19 27 21 30 10 3 -8 9 -21 15 -28 7 -9 6 -11 -7 -6 -9 3 -16 10
-16 15 0 5 -5 9 -10 9 -6 0 -5 -8 2 -19 10 -16 9 -23 -5 -39 -17 -19 -17 -20
7 -24 13 -3 32 0 41 5 13 7 16 6 11 -2 -4 -6 -3 -11 3 -11 11 0 41 -56 41 -77
0 -7 -10 -13 -21 -13 -17 0 -20 5 -17 25 5 24 -1 29 -39 28 -7 -1 -11 3 -8 7
3 4 -3 14 -13 21 -15 12 -16 12 -4 -2 11 -14 9 -17 -13 -21 -21 -4 -23 -3 -14
9 17 20 4 27 -23 12 -12 -7 -33 -14 -45 -15 -19 -2 -21 0 -11 16 10 15 15 17
28 8 8 -7 -7 11 -35 39 -27 28 -52 50 -55 48 -3 -2 -6 9 -5 25 0 34 32 67 61
65 13 -1 21 5 21 17 1 11 -5 18 -17 18 -23 0 -82 48 -74 61 3 5 -3 9 -13 10
-14 0 -14 2 5 9 12 5 22 17 23 27 0 11 3 13 6 5 3 -7 -1 -19 -7 -27z m656 26
c-3 -5 1 -14 9 -21 8 -7 12 -16 9 -21 -6 -11 -25 -12 -22 -1 1 4 -3 17 -10 30
-11 19 -10 22 3 22 9 0 14 -4 11 -9z m458 -25 c-10 -8 -21 -12 -24 -9 -3 2 3
9 13 14 9 6 14 16 11 22 -5 8 -3 8 6 0 12 -11 11 -15 -6 -27z m-396 -16 c-2
-6 -8 -6 -18 0 -13 9 -13 11 0 20 15 10 25 0 18 -20z m-188 -6 c14 -37 13 -40
-19 -42 -22 -2 -30 3 -35 20 -4 15 0 27 11 36 24 18 32 15 43 -14z m342 4 c-6
-6 -15 -8 -19 -4 -4 4 -1 11 7 16 19 12 27 3 12 -12z m-578 -20 c-9 -14 8 -57
21 -52 7 3 21 -3 31 -13 17 -17 17 -18 -12 -24 -19 -4 -22 -7 -9 -8 11 -1 27
-6 35 -11 13 -9 13 -11 1 -19 -10 -7 -18 -5 -26 6 -10 13 -17 14 -47 3 -30
-11 -37 -19 -42 -48 -3 -19 -3 -39 0 -44 3 -5 28 -6 56 -3 33 4 48 2 43 -5 -3
-6 -11 -8 -16 -5 -15 10 -10 -7 8 -27 15 -17 15 -18 -9 -18 -17 0 -27 7 -31
19 -3 13 -12 18 -31 16 -20 -3 -29 2 -36 18 -4 12 -4 26 0 30 16 18 -13 73
-56 106 -36 27 -42 36 -34 51 8 16 14 17 40 7 16 -6 30 -15 30 -19 0 -4 6 -8
14 -8 7 0 25 -9 40 -21 28 -22 36 -11 10 15 -8 9 -20 13 -26 10 -8 -5 -9 1 -4
17 4 13 9 31 11 39 2 8 4 16 4 18 1 1 10 -3 20 -10 11 -7 18 -15 15 -20z m770
2 c-6 -6 -15 -6 -24 0 -13 9 -13 11 0 20 18 11 39 -5 24 -20z m-837 -27 c-4
-3 -13 -1 -20 5 -8 7 -16 11 -18 9 -2 -1 3 5 11 14 14 15 16 15 24 -2 5 -11 6
-22 3 -26z m132 3 c-2 -2 -13 8 -23 22 l-19 27 24 -22 c12 -12 21 -24 18 -27z
m-409 25 c0 -6 -4 -12 -8 -15 -5 -3 -9 1 -9 9 0 8 4 15 9 15 4 0 8 -4 8 -9z
m455 -1 c4 -7 13 -7 26 0 14 8 19 7 20 -2 1 -7 2 -17 4 -23 1 -5 3 -18 3 -28
1 -10 6 -15 12 -12 6 4 7 -1 3 -11 -4 -11 -3 -15 5 -10 6 3 13 -3 17 -15 4
-11 20 -36 37 -55 31 -35 34 -59 4 -29 -9 9 -16 13 -16 8 0 -4 -5 0 -11 10 -5
9 -16 17 -24 17 -8 0 -17 5 -21 12 -5 7 -3 8 7 3 17 -10 -21 37 -39 48 -11 7
-10 11 3 21 15 11 15 16 4 33 -7 12 -18 19 -24 17 -7 -3 -18 2 -25 11 -8 9 -8
15 -2 15 6 0 14 -5 17 -10z m725 0 c0 -5 -7 -10 -16 -10 -8 0 -12 5 -9 10 3 6
10 10 16 10 5 0 9 -4 9 -10z m-1417 -29 c4 -4 -7 -6 -25 -5 -25 3 -28 2 -10
-4 22 -7 22 -7 3 -19 -17 -10 -22 -10 -29 3 -7 13 -11 12 -27 -6 -10 -11 -24
-20 -32 -20 -7 0 -13 -3 -13 -7 0 -5 -13 -8 -29 -9 -25 -1 -27 1 -16 12 7 8
23 14 35 14 13 0 24 8 27 20 3 11 14 20 24 20 12 0 16 5 13 14 -5 13 1 13 33
4 21 -5 42 -13 46 -17z m193 11 c12 -9 25 -26 29 -37 7 -17 9 -16 14 13 3 18
10 33 15 34 15 2 46 -26 46 -41 0 -12 -3 -12 -12 -3 -18 18 -28 15 -28 -8 0
-11 7 -20 15 -20 22 0 18 -18 -6 -31 -12 -6 -19 -7 -15 -1 8 13 -4 43 -14 37
-4 -3 -14 2 -21 11 -10 12 -23 14 -60 9 -59 -8 -77 0 -54 25 10 11 26 16 43
13 23 -3 24 -2 7 6 l-20 10 20 0 c11 0 29 -7 41 -17z m791 -9 c-3 -3 -11 -2
-17 2 -9 6 -9 10 1 16 14 8 27 -7 16 -18z m143 17 c0 -5 -15 -10 -32 -9 -31 1
-32 1 -8 9 35 11 40 11 40 0z m104 -5 c-4 -8 -2 -21 4 -28 18 -23 10 -46 -21
-53 -35 -7 -56 8 -38 30 8 9 8 16 2 20 -16 10 -2 34 22 39 12 2 25 5 29 6 4 0
5 -6 2 -14z m-69 -5 c-3 -5 -12 -10 -18 -10 -7 0 -6 4 3 10 19 12 23 12 15 0z
m-462 -9 c13 -2 8 -28 -8 -41 -18 -15 -24 -11 -30 23 -4 20 -1 25 12 22 10 -2
21 -4 26 -4z m734 -8 c-19 -20 -48 -23 -59 -8 -5 6 -12 4 -18 -5 -15 -23 -12
-50 6 -50 10 0 14 -6 10 -15 -8 -23 12 -18 25 6 10 19 13 20 26 6 18 -18 8
-41 -15 -32 -8 3 -19 0 -24 -7 -7 -10 -10 -9 -18 3 -9 16 -55 35 -74 30 -5 -1
-3 5 4 14 27 33 1 23 -41 -16 -40 -37 -45 -39 -56 -23 -7 10 -11 19 -10 21 3
2 41 10 60 12 4 1 7 12 7 25 0 23 2 24 32 15 27 -7 35 -6 48 10 15 19 39 27
90 30 23 1 23 0 7 -16z m-553 -14 c-3 -5 -10 -7 -15 -3 -5 3 -7 10 -3 15 3 5
10 7 15 3 5 -3 7 -10 3 -15z m201 11 c3 -5 3 -11 -2 -11 -4 -1 -19 -3 -33 -6
-14 -2 -33 -5 -42 -6 -10 -1 -18 -7 -18 -14 0 -18 -18 -25 -36 -15 -14 8 -10
13 20 31 20 13 42 21 50 18 7 -3 19 -1 27 4 18 11 26 11 34 -1z m-255 -10 c21
-11 36 -69 26 -96 -6 -15 -8 -15 -26 1 -10 9 -17 22 -14 29 2 6 -5 22 -16 34
-31 33 -12 54 30 32z m-754 -14 c22 -7 56 -11 77 -9 41 4 77 -10 77 -31 0 -14
-37 -29 -78 -31 -26 -1 -47 19 -37 34 3 6 0 9 -7 7 -56 -18 -66 -16 -64 8 3
20 -1 24 -25 22 -15 -1 -26 2 -23 6 8 12 36 10 80 -6z m999 -15 c-3 -6 -11 -9
-16 -6 -5 4 -9 -1 -9 -10 0 -9 5 -13 10 -10 6 3 10 1 10 -5 0 -21 -25 -4 -28
20 -3 17 0 21 12 17 9 -4 16 -1 16 5 0 6 3 9 6 5 3 -3 3 -11 -1 -16z m-45 -11
c0 -5 -2 -10 -4 -10 -3 0 -8 5 -11 10 -3 6 -1 10 4 10 6 0 11 -4 11 -10z
m-1043 -6 c-3 -3 -12 -4 -19 -1 -8 3 -5 6 6 6 11 1 17 -2 13 -5z m736 -14 c3
-12 1 -18 -5 -14 -6 4 -14 1 -18 -6 -5 -7 -7 -2 -7 14 0 31 22 35 30 6z m179
-2 c-1 -9 4 -18 13 -22 22 -8 19 -33 -5 -39 -17 -4 -19 -1 -14 19 4 16 2 24
-7 24 -7 0 -9 3 -6 7 4 3 2 12 -4 19 -7 9 -6 12 8 10 10 -2 17 -10 15 -18z
m83 -4 c11 -4 23 -7 27 -6 8 2 4 -25 -5 -34 -15 -16 -52 -9 -58 11 -3 11 -11
19 -17 18 -7 -2 -12 6 -12 17 0 16 4 18 23 11 12 -5 31 -13 42 -17z m-486 -31
l0 -28 -11 25 c-6 15 -12 20 -15 13 -3 -7 -12 -13 -21 -13 -15 1 -14 3 2 15
30 23 46 18 45 -12z m-236 1 c-2 -7 1 -22 7 -34 11 -20 9 -21 -22 -18 -18 2
-32 7 -30 11 2 5 -6 17 -18 27 -20 17 -20 19 -3 23 34 9 71 3 66 -9z m-208
-16 c17 -8 35 -13 42 -11 6 2 14 0 16 -4 10 -17 -43 -12 -88 7 -25 11 -45 21
-45 24 0 9 45 -1 75 -16z m691 7 c3 -8 16 -17 27 -21 23 -7 67 -44 67 -56 0
-13 -48 -9 -53 5 -3 7 -8 5 -13 -8 -4 -11 -15 -25 -23 -32 -13 -9 -17 -8 -22
5 -4 9 -3 24 1 32 4 8 2 31 -6 50 -7 19 -13 29 -13 21 -1 -8 -4 -12 -7 -8 -9
9 5 27 22 27 8 0 17 -7 20 -15z m137 -5 c-3 -11 -9 -17 -15 -14 -5 3 -4 12 3
20 16 19 18 18 12 -6z m-192 -22 c4 -16 3 -28 -2 -28 -4 0 -6 -6 -3 -13 2 -7
-2 -21 -11 -32 -13 -17 -16 -18 -25 -5 -15 23 -12 34 5 20 12 -10 15 -10 15 3
0 9 -5 19 -11 23 -6 3 -9 15 -6 25 3 11 1 19 -5 19 -5 0 -6 5 -3 11 12 18 38
5 46 -23z m-682 3 c21 -11 30 -21 22 -25 -6 -4 -18 0 -27 8 -24 25 -61 0 -55
-36 2 -12 -27 -10 -34 2 -10 16 -23 12 -21 -6 0 -9 -5 -19 -13 -22 -10 -3 -11
2 -6 19 5 13 9 33 10 44 4 30 5 31 15 15 8 -12 10 -12 10 -1 0 11 3 11 16 0
15 -12 18 -11 28 4 13 21 13 21 55 -2z m974 -16 c-36 -24 -53 -26 -53 -5 0 19
23 29 53 22 17 -4 17 -5 0 -17z m288 14 c11 -5 17 -15 13 -21 -4 -5 0 -14 7
-19 11 -7 11 -9 -3 -9 -43 0 -68 29 -25 31 l22 0 -23 9 c-12 5 -30 7 -40 4
-14 -5 -15 -4 -2 5 19 13 27 14 51 0z m-121 -3 c0 -2 -7 -7 -16 -10 -8 -3 -12
-2 -9 4 6 10 25 14 25 6z m-263 -37 c12 -30 8 -59 -7 -59 -4 0 -7 14 -6 31 1
16 -1 32 -6 35 -4 3 -8 0 -8 -7 0 -7 -2 -10 -5 -7 -7 7 5 38 14 38 4 0 12 -14
18 -31z m24 8 c-13 -13 -26 -3 -16 12 3 6 11 8 17 5 6 -4 6 -10 -1 -17z m283
15 c2 -4 -4 -9 -15 -9 -11 -1 -17 2 -14 8 7 11 22 12 29 1z m-1079 -12 c15
-23 42 -29 71 -14 31 16 98 14 116 -4 7 -7 0 -16 -21 -28 -18 -11 -26 -21 -20
-25 6 -4 20 2 30 12 20 20 44 25 54 10 3 -5 0 -13 -7 -17 -19 -12 -118 -33
-118 -25 0 4 -14 5 -31 3 -22 -3 -27 -7 -18 -13 8 -5 11 -9 7 -9 -3 0 -14 -3
-24 -7 -12 -4 -15 -3 -10 5 4 7 3 12 -2 12 -4 0 -23 15 -42 33 -20 19 -31 25
-27 15 7 -20 -5 -22 -38 -8 -19 8 -18 11 7 14 15 1 20 36 5 36 -7 0 -5 5 3 10
20 13 57 13 65 0z m921 1 c-7 -11 -46 -21 -46 -12 0 13 13 21 32 21 11 0 17
-4 14 -9z m-697 -14 c8 -10 7 -14 -2 -14 -8 0 -14 6 -14 14 0 7 1 13 2 13 2 0
8 -6 14 -13z m725 -21 c-7 -18 -24 -22 -24 -4 0 6 -13 -3 -30 -22 -16 -18 -27
-37 -23 -43 3 -6 1 -7 -6 -3 -6 4 -14 1 -17 -8 -3 -9 -12 -12 -21 -9 -12 5
-14 2 -9 -8 4 -8 1 -6 -8 4 -8 11 -12 26 -9 34 3 8 0 19 -8 24 -25 15 7 32 61
33 27 1 50 4 50 8 0 6 40 16 48 12 1 0 0 -9 -4 -18z m162 14 c8 0 14 -4 14
-10 0 -5 -7 -10 -15 -10 -8 0 -15 -4 -15 -9 0 -14 -63 -26 -68 -12 -2 6 -10
11 -18 11 -9 0 -12 4 -9 10 8 12 66 29 83 24 8 -2 20 -4 28 -4z m-122 -7 c-5
-5 -12 -12 -16 -18 -4 -6 -8 -2 -8 8 0 9 7 17 17 17 9 0 12 -3 7 -7z m-1173
-27 c-9 -11 -9 -15 0 -18 16 -5 2 -28 -17 -28 -18 0 -13 38 7 51 20 13 23 11
10 -5z m906 0 c-5 -16 -24 -18 -30 -2 -4 10 0 14 14 13 10 -1 18 -6 16 -11z
m-947 -26 c0 -11 -4 -20 -9 -20 -5 0 -7 9 -4 20 3 11 7 20 9 20 2 0 4 -9 4
-20z m890 10 c0 -5 -4 -10 -9 -10 -6 0 -13 5 -16 10 -3 6 1 10 9 10 9 0 16 -4
16 -10z m-746 -8 c3 -5 18 -7 33 -5 15 2 37 -4 48 -12 17 -14 18 -17 5 -25 -8
-5 -25 -10 -38 -10 -12 0 -25 -7 -28 -15 -7 -17 -40 -20 -49 -5 -4 6 5 10 19
10 19 0 26 5 26 20 0 11 -4 20 -10 20 -5 0 -10 -5 -10 -11 0 -6 -9 -9 -20 -6
-11 3 -23 1 -26 -4 -8 -14 -24 0 -24 21 0 13 9 20 28 23 15 2 30 5 34 6 4 0 9
-3 12 -7z m570 -4 c12 -40 17 -50 22 -46 2 3 0 17 -6 32 -9 26 -9 27 23 24 30
-2 33 -5 32 -31 -1 -17 -10 -36 -21 -44 -10 -8 -18 -16 -16 -18 4 -8 -2 -8
-24 -1 -24 7 -37 39 -22 54 6 6 6 12 -1 16 -6 4 -11 11 -11 17 0 14 20 11 24
-3z m547 -6 c-7 -2 -18 1 -23 6 -8 8 -4 9 13 5 13 -4 18 -8 10 -11z m59 0 c0
-8 11 -25 25 -38 30 -28 31 -34 6 -34 -11 0 -28 14 -40 34 -25 40 -26 53 -6
53 8 0 15 -7 15 -15z m-800 -1 c0 -6 10 -9 23 -9 57 4 78 -2 77 -19 -3 -25 11
-63 22 -63 5 0 8 -10 6 -22 -5 -35 -29 -27 -42 12 -6 19 -17 35 -23 35 -7 0
-12 3 -10 6 4 11 -24 38 -36 33 -7 -2 -18 5 -25 16 -7 12 -8 20 -2 20 5 0 10
-4 10 -9z m-3 -34 c42 -46 60 -77 68 -113 6 -31 5 -32 -29 -32 -20 0 -39 5
-43 11 -3 6 -1 7 5 3 14 -8 20 61 8 92 -5 12 -16 22 -25 22 -9 0 -22 9 -29 21
-10 16 -21 20 -42 17 -16 -2 -27 -1 -24 4 3 4 22 8 43 8 30 0 44 -7 68 -33z
m478 23 c3 -5 2 -10 -4 -10 -5 0 -13 5 -16 10 -3 6 -2 10 4 10 5 0 13 -4 16
-10z m-605 -10 c0 -5 -9 -10 -21 -10 -11 0 -17 5 -14 10 3 6 13 10 21 10 8 0
14 -4 14 -10z m567 4 c-3 -3 -12 -4 -19 -1 -8 3 -5 6 6 6 11 1 17 -2 13 -5z
m-623 -23 c-4 -9 -7 -24 -8 -33 0 -10 -6 -18 -14 -18 -7 0 -10 -5 -6 -12 4 -7
3 -8 -5 -4 -6 4 -9 11 -6 16 3 4 -5 10 -16 13 -27 7 -19 32 10 31 11 0 21 5
21 11 0 6 7 12 15 12 11 0 14 -6 9 -16z m130 11 c2 -4 -4 -8 -14 -8 -10 0 -16
4 -14 8 3 4 9 8 14 8 5 0 11 -4 14 -8z m-446 -24 c2 -12 -2 -15 -16 -11 -10 2
-19 11 -19 19 0 20 31 13 35 -8z m222 -3 c-7 -8 -24 -14 -39 -14 l-26 2 25 4
c14 3 29 9 35 14 15 15 19 10 5 -6z m120 -30 c0 -14 8 -29 19 -35 21 -10 51
-4 51 11 0 15 37 10 54 -7 9 -8 16 -23 16 -31 0 -14 -2 -14 -18 0 -10 10 -29
17 -43 17 -23 -1 -22 -2 6 -14 19 -8 25 -15 17 -20 -7 -4 -12 -2 -12 5 0 6 -8
9 -20 6 -11 -3 -18 -2 -15 3 3 4 -7 11 -23 15 -15 4 -33 11 -39 17 -15 12 -17
58 -3 58 6 0 10 -11 10 -25z m158 -18 l3 -36 -29 27 c-26 24 -28 28 -13 39 24
19 36 10 39 -30z m-523 23 c-3 -5 -15 -10 -26 -10 -11 0 -17 5 -14 10 3 6 15
10 26 10 11 0 17 -4 14 -10z m613 -65 c0 -5 -6 4 -13 20 -8 17 -14 37 -14 45
0 8 7 -1 14 -20 7 -19 13 -39 13 -45z m877 65 c3 -5 2 -10 -4 -10 -5 0 -13 5
-16 10 -3 6 -2 10 4 10 5 0 13 -4 16 -10z m-788 -23 c-15 -5 -24 -13 -21 -19
4 -7 2 -8 -4 -4 -6 4 -9 13 -6 21 4 8 10 12 15 9 5 -3 9 -1 9 5 0 6 8 7 17 4
14 -5 12 -8 -10 -16z m775 -9 c-13 -13 -32 -2 -32 18 0 12 4 13 21 3 14 -7 18
-14 11 -21z m-655 0 c-3 -8 -6 -5 -6 6 -1 11 2 17 5 13 3 -3 4 -12 1 -19z
m568 -16 c-8 -8 -25 10 -19 20 4 6 9 5 15 -3 4 -7 6 -15 4 -17z m-675 7 c0 -8
4 -8 15 1 20 17 38 4 25 -20 -15 -28 -12 -34 8 -19 15 13 16 12 3 -4 -8 -10
-21 -15 -29 -12 -12 4 -13 3 -2 -10 9 -11 16 -12 26 -5 9 9 12 7 9 -7 -2 -10
-4 -20 -4 -22 -1 -3 -6 0 -12 6 -14 14 -42 5 -32 -10 3 -6 1 -7 -6 -3 -9 6 -9
11 -1 21 8 9 8 15 0 20 -5 3 -10 1 -10 -5 0 -7 -6 -8 -19 0 -26 13 -34 13 -25
-2 5 -9 2 -9 -9 1 -18 15 -23 26 -7 16 6 -3 10 2 11 12 0 10 3 13 6 6 3 -9 10
-10 22 -3 10 5 21 6 25 3 3 -3 6 0 6 8 0 8 -5 20 -12 27 -9 9 -9 12 0 12 7 0
12 -5 12 -11z m820 7 c0 -3 -4 -8 -10 -11 -5 -3 -10 -1 -10 4 0 6 5 11 10 11
6 0 10 -2 10 -4z m-64 -33 c-6 -6 -36 9 -36 18 0 5 9 4 20 -3 10 -7 18 -14 16
-15z m-66 -44 c0 -6 -4 -7 -10 -4 -5 3 -10 1 -10 -4 0 -6 -4 -11 -10 -11 -19
0 -10 26 10 27 11 1 20 -3 20 -8z m-630 -524 c0 -8 -7 -15 -15 -15 -26 0 -18
20 13 29 1 1 2 -6 2 -14z"/>
<path d="M580 1427 c0 -19 16 -31 24 -18 3 5 -1 14 -9 21 -12 10 -15 10 -15
-3z"/>
<path d="M1090 1116 c0 -2 8 -10 18 -17 15 -13 16 -12 3 4 -13 16 -21 21 -21
13z"/>
<path d="M920 900 c-9 -6 -10 -10 -3 -10 6 0 15 5 18 10 8 12 4 12 -15 0z"/>
<path d="M931 622 c-1 -7 -5 -11 -10 -8 -5 4 -7 -3 -4 -14 3 -11 9 -18 13 -15
4 3 10 -9 14 -27 3 -17 8 -29 11 -27 2 3 -2 27 -10 54 -7 28 -14 44 -14 37z"/>
<path d="M1061 530 c3 -36 -2 -60 -17 -75 -10 -9 -14 -26 -12 -40 3 -13 1 -26
-5 -28 -13 -4 -15 -49 -3 -66 8 -11 8 -13 -1 -7 -9 5 -13 -1 -13 -23 0 -20 9
-37 31 -55 17 -14 25 -26 18 -26 -18 0 -56 49 -63 81 -3 16 -9 29 -14 29 -14
0 -3 -72 14 -97 14 -22 20 -23 132 -22 64 1 106 4 92 6 -14 3 -30 9 -35 13 -6
5 -34 12 -64 16 -29 4 -55 13 -58 20 -3 8 -8 12 -12 10 -3 -2 -6 6 -7 17 0 12
-3 37 -6 55 -4 19 -2 32 4 32 6 0 8 13 6 30 -3 16 -2 28 1 25 10 -11 29 90 20
105 -8 13 -9 13 -8 0z m54 -318 c-3 -3 -11 0 -18 7 -9 10 -8 11 6 5 10 -3 15
-9 12 -12z"/>
<path d="M970 386 c0 -22 3 -27 11 -19 8 8 8 16 0 30 -9 16 -10 14 -11 -11z"/>
<path d="M608 203 c12 -2 32 -2 45 0 12 2 2 4 -23 4 -25 0 -35 -2 -22 -4z"/>
</g>
</svg>
