<svg xmlns="http://www.w3.org/2000/svg" viewBox="0 0 400 100.48"><defs><style>.cls-1{fill:#fff;}</style></defs><title>Ativo 1</title><g id="Camada_2" data-name="Camada 2"><g id="Layer_1" data-name="Layer 1"><path class="cls-1" d="M50.52,64.09A43.76,43.76,0,0,0,62.59,80.53,72.59,72.59,0,0,0,83.12,92.68a120.29,120.29,0,0,0,20,6L53,0a140.18,140.18,0,0,0-5.93,26.84C45.38,41.53,46.58,54.41,50.52,64.09Z"/><path class="cls-1" d="M82,95.53a75.57,75.57,0,0,1-21.4-12.69A46.71,46.71,0,0,1,47.68,65.25C43.54,55.09,42.27,41.69,44,26.49A138.52,138.52,0,0,1,48.09,5.73L0,100.48H97.3A117.82,117.82,0,0,1,82,95.53Z"/><path class="cls-1" d="M122.25,89.45v-12h.84v12Z"/><path class="cls-1" d="M135.23,89.45h-.84l-7.12-10.67h-.07c.07,1.27.1,2.23.1,2.88v7.79h-.8v-12h.83l7.11,10.65h.05c-.05-1-.07-1.92-.07-2.81V77.43h.81Z"/><path class="cls-1" d="M143.76,78a4.58,4.58,0,0,0-3.56,1.45,5.74,5.74,0,0,0-1.29,4,5.88,5.88,0,0,0,1.22,4,4.37,4.37,0,0,0,3.5,1.43,9.43,9.43,0,0,0,2.78-.39v.74a9.1,9.1,0,0,1-3,.42,5,5,0,0,1-4-1.64A6.63,6.63,0,0,1,138,83.41a7.18,7.18,0,0,1,.7-3.23,5,5,0,0,1,2-2.16,5.82,5.82,0,0,1,3-.76,7.25,7.25,0,0,1,3.15.66l-.33.75A6.11,6.11,0,0,0,143.76,78Z"/><path class="cls-1" d="M159.19,83.42A6.74,6.74,0,0,1,157.76,88a5.52,5.52,0,0,1-7.89,0,6.76,6.76,0,0,1-1.42-4.54,6.63,6.63,0,0,1,1.44-4.52,5,5,0,0,1,3.94-1.65,4.9,4.9,0,0,1,3.94,1.66A6.74,6.74,0,0,1,159.19,83.42Zm-9.83,0a6.14,6.14,0,0,0,1.15,4,4.61,4.61,0,0,0,6.62,0,6.22,6.22,0,0,0,1.14-4,6.11,6.11,0,0,0-1.14-4,4.64,4.64,0,0,0-6.61,0A6.08,6.08,0,0,0,149.36,83.42Z"/><path class="cls-1" d="M162.79,84.21v5.24H162v-12h2.86a5.37,5.37,0,0,1,3.3.83,3,3,0,0,1,1.07,2.48,3.26,3.26,0,0,1-.63,2A3.61,3.61,0,0,1,166.61,84l3.26,5.48h-1l-3.1-5.24Zm0-.72h2.29a3.68,3.68,0,0,0,2.36-.68,2.42,2.42,0,0,0,.84-2,2.37,2.37,0,0,0-.82-2,4.49,4.49,0,0,0-2.68-.62h-2Z"/><path class="cls-1" d="M179.18,80.88A3.16,3.16,0,0,1,178,83.55a5.32,5.32,0,0,1-3.35.93h-1.86v5H172v-12h2.94Q179.18,77.43,179.18,80.88Zm-6.39,2.88h1.65a5,5,0,0,0,2.93-.67,2.52,2.52,0,0,0,.91-2.18,2.41,2.41,0,0,0-.86-2,4.24,4.24,0,0,0-2.64-.67h-2Z"/><path class="cls-1" d="M191.9,83.42A6.74,6.74,0,0,1,190.47,88a5.51,5.51,0,0,1-7.88,0,6.72,6.72,0,0,1-1.43-4.54,6.63,6.63,0,0,1,1.44-4.52,5,5,0,0,1,3.94-1.65,4.9,4.9,0,0,1,3.94,1.66A6.74,6.74,0,0,1,191.9,83.42Zm-9.83,0a6.14,6.14,0,0,0,1.15,4,4.61,4.61,0,0,0,6.62,0,6.22,6.22,0,0,0,1.14-4,6.11,6.11,0,0,0-1.14-4,4.64,4.64,0,0,0-6.61,0A6.08,6.08,0,0,0,182.07,83.42Z"/><path class="cls-1" d="M195.5,84.21v5.24h-.84v-12h2.86a5.37,5.37,0,0,1,3.3.83,3,3,0,0,1,1.07,2.48,3.21,3.21,0,0,1-.64,2A3.54,3.54,0,0,1,199.32,84l3.26,5.48h-1l-3.1-5.24Zm0-.72h2.29a3.68,3.68,0,0,0,2.36-.68,2.42,2.42,0,0,0,.84-2,2.37,2.37,0,0,0-.82-2,4.49,4.49,0,0,0-2.68-.62h-2Z"/><path class="cls-1" d="M210.45,85.2h-4.89l-1.67,4.25H203l4.83-12.07h.54l4.73,12.07h-.95Zm-4.58-.75h4.3l-1.64-4.33c-.14-.34-.3-.81-.49-1.42a11.88,11.88,0,0,1-.49,1.43Z"/><path class="cls-1" d="M219.89,78a4.56,4.56,0,0,0-3.56,1.45,5.69,5.69,0,0,0-1.3,4,5.88,5.88,0,0,0,1.23,4,4.35,4.35,0,0,0,3.5,1.43,9.37,9.37,0,0,0,2.77-.39v.74a9,9,0,0,1-3,.42,5,5,0,0,1-4-1.64,6.63,6.63,0,0,1-1.46-4.56,7.18,7.18,0,0,1,.69-3.23,5,5,0,0,1,2-2.16,5.88,5.88,0,0,1,3-.76,7.28,7.28,0,0,1,3.15.66l-.34.75A6.1,6.1,0,0,0,219.89,78Zm.66,13.83a1.47,1.47,0,0,1-.56,1.24,2.6,2.6,0,0,1-1.55.41,2.23,2.23,0,0,1-.77-.09v-.73a2.32,2.32,0,0,0,.76.09,1.74,1.74,0,0,0,1-.23.76.76,0,0,0,.34-.66c0-.52-.53-.85-1.58-1l.76-1.43h.79l-.54,1C220.09,90.61,220.55,91.09,220.55,91.84Z"/><path class="cls-1" d="M235.31,83.42A6.69,6.69,0,0,1,233.88,88,5.51,5.51,0,0,1,226,88a6.77,6.77,0,0,1-1.43-4.54A6.63,6.63,0,0,1,226,78.89a5,5,0,0,1,4-1.65,4.89,4.89,0,0,1,3.93,1.66A6.69,6.69,0,0,1,235.31,83.42Zm-9.83,0a6.14,6.14,0,0,0,1.16,4,4,4,0,0,0,3.3,1.41,4.07,4.07,0,0,0,3.32-1.39,6.22,6.22,0,0,0,1.14-4,6.11,6.11,0,0,0-1.14-4,4.64,4.64,0,0,0-6.61,0A6,6,0,0,0,225.48,83.42Zm5.76-7a1.45,1.45,0,0,1-.62-.15,4.25,4.25,0,0,1-.83-.59l-.51-.38a.93.93,0,0,0-.52-.16.8.8,0,0,0-.61.28,2.26,2.26,0,0,0-.4,1h-.6a2.57,2.57,0,0,1,.52-1.43,1.45,1.45,0,0,1,1.85-.32,6.66,6.66,0,0,1,.67.49c.19.15.37.29.55.41a.88.88,0,0,0,.5.18.8.8,0,0,0,.63-.3,2.33,2.33,0,0,0,.4-1h.62a2.76,2.76,0,0,1-.57,1.45A1.35,1.35,0,0,1,231.24,76.45Z"/><path class="cls-1" d="M244.64,89.45h-6.56v-12h6.56v.77h-5.72v4.55h5.4v.77h-5.4v5.15h5.72Z"/><path class="cls-1" d="M254,86.35a2.9,2.9,0,0,1-1.1,2.38,4.58,4.58,0,0,1-2.94.88,9.32,9.32,0,0,1-3.38-.48v-.84a8.7,8.7,0,0,0,3.31.55,3.73,3.73,0,0,0,2.35-.68,2.14,2.14,0,0,0,.87-1.78,2.08,2.08,0,0,0-.29-1.13,2.58,2.58,0,0,0-.94-.82,11.89,11.89,0,0,0-1.9-.79,6.67,6.67,0,0,1-2.55-1.37,2.93,2.93,0,0,1,.36-4.16,4.16,4.16,0,0,1,2.71-.85,7.89,7.89,0,0,1,3.18.64l-.3.72a7.54,7.54,0,0,0-2.86-.62,3.36,3.36,0,0,0-2.12.61,2,2,0,0,0-.79,1.68,2.17,2.17,0,0,0,.24,1.09,2.28,2.28,0,0,0,.8.77,10.47,10.47,0,0,0,1.88.82,10.23,10.23,0,0,1,2.12.94,3,3,0,0,1,1,1A2.87,2.87,0,0,1,254,86.35Z"/><path class="cls-1" d="M260.22,86.39a3.1,3.1,0,0,1,.6-1.92,6.79,6.79,0,0,1,2.26-1.69l-.62-.67a5,5,0,0,1-.81-1.14,2.84,2.84,0,0,1-.26-1.17,2.37,2.37,0,0,1,.78-1.87,3.1,3.1,0,0,1,2.11-.69,2.88,2.88,0,0,1,2,.67,2.33,2.33,0,0,1,.74,1.84,2.48,2.48,0,0,1-.57,1.58,7.92,7.92,0,0,1-2.08,1.6l3.72,3.75a6.7,6.7,0,0,0,.85-1.29,8.66,8.66,0,0,0,.62-1.65h.78a8.89,8.89,0,0,1-1.71,3.5l2.18,2.21h-1.1l-1.59-1.62a7.71,7.71,0,0,1-1.35,1.08,5.44,5.44,0,0,1-1.29.52,6.52,6.52,0,0,1-1.6.18,4,4,0,0,1-2.7-.85A2.93,2.93,0,0,1,260.22,86.39ZM264,88.87a5,5,0,0,0,1.93-.36,5.53,5.53,0,0,0,1.73-1.2l-4-4a10.11,10.11,0,0,0-1.61,1,2.6,2.6,0,0,0-.72.9,2.65,2.65,0,0,0-.23,1.13,2.32,2.32,0,0,0,.76,1.84A3.1,3.1,0,0,0,264,88.87Zm-1.68-9.09a2.31,2.31,0,0,0,.33,1.2,7.21,7.21,0,0,0,1.25,1.43,6.28,6.28,0,0,0,1.82-1.31,2.12,2.12,0,0,0,.5-1.39,1.67,1.67,0,0,0-.5-1.25,2,2,0,0,0-1.39-.48,2.18,2.18,0,0,0-1.47.47A1.71,1.71,0,0,0,262.27,79.78Z"/><path class="cls-1" d="M282.41,78a4.58,4.58,0,0,0-3.57,1.45,5.74,5.74,0,0,0-1.29,4,5.93,5.93,0,0,0,1.22,4,4.37,4.37,0,0,0,3.5,1.43,9.43,9.43,0,0,0,2.78-.39v.74a9,9,0,0,1-3,.42,5,5,0,0,1-4-1.64,6.62,6.62,0,0,1-1.45-4.56,7.18,7.18,0,0,1,.69-3.23,5,5,0,0,1,2-2.16,5.83,5.83,0,0,1,3-.76,7.2,7.2,0,0,1,3.14.66l-.33.75A6.1,6.1,0,0,0,282.41,78Z"/><path class="cls-1" d="M297.83,83.42A6.74,6.74,0,0,1,296.4,88a5.51,5.51,0,0,1-7.88,0,6.77,6.77,0,0,1-1.43-4.54,6.63,6.63,0,0,1,1.44-4.52,5,5,0,0,1,3.94-1.65,4.9,4.9,0,0,1,3.94,1.66A6.69,6.69,0,0,1,297.83,83.42Zm-9.83,0a6.14,6.14,0,0,0,1.15,4,4.61,4.61,0,0,0,6.62,0,6.16,6.16,0,0,0,1.15-4,6.05,6.05,0,0,0-1.15-4,4.62,4.62,0,0,0-6.6,0A6,6,0,0,0,288,83.42Z"/><path class="cls-1" d="M309.33,89.45h-.85l-7.12-10.67h-.06c.06,1.27.1,2.23.1,2.88v7.79h-.81v-12h.84l7.11,10.65h0c0-1-.08-1.92-.08-2.81V77.43h.82Z"/><path class="cls-1" d="M319.36,86.35a2.9,2.9,0,0,1-1.1,2.38,4.58,4.58,0,0,1-2.94.88,9.32,9.32,0,0,1-3.38-.48v-.84a8.7,8.7,0,0,0,3.31.55,3.73,3.73,0,0,0,2.35-.68,2.14,2.14,0,0,0,.87-1.78,2.08,2.08,0,0,0-.29-1.13,2.67,2.67,0,0,0-.94-.82,11.89,11.89,0,0,0-1.9-.79,6.67,6.67,0,0,1-2.55-1.37,2.94,2.94,0,0,1,.35-4.16,4.19,4.19,0,0,1,2.72-.85,7.89,7.89,0,0,1,3.18.64l-.3.72a7.54,7.54,0,0,0-2.86-.62,3.34,3.34,0,0,0-2.12.61,2,2,0,0,0-.79,1.68,2.17,2.17,0,0,0,.24,1.09,2.25,2.25,0,0,0,.79.77,11,11,0,0,0,1.89.82,9.87,9.87,0,0,1,2.11.94,3,3,0,0,1,1,1A2.87,2.87,0,0,1,319.36,86.35Z"/><path class="cls-1" d="M325,89.45h-.84V78.22h-3.91v-.79h8.66v.79H325Z"/><path class="cls-1" d="M331.56,84.21v5.24h-.84v-12h2.86a5.37,5.37,0,0,1,3.3.83A3,3,0,0,1,338,80.74a3.26,3.26,0,0,1-.63,2A3.57,3.57,0,0,1,335.38,84l3.26,5.48h-1l-3.1-5.24Zm0-.72h2.29a3.68,3.68,0,0,0,2.36-.68,2.42,2.42,0,0,0,.84-2,2.37,2.37,0,0,0-.82-2,4.47,4.47,0,0,0-2.68-.62h-2Z"/><path class="cls-1" d="M349.56,77.43V85.2a4.27,4.27,0,0,1-1.21,3.24A4.58,4.58,0,0,1,345,89.61a4.06,4.06,0,0,1-4.43-4.44V77.43h.85V85.2a3.34,3.34,0,0,0,3.68,3.67,3.6,3.6,0,0,0,2.66-1,3.56,3.56,0,0,0,1-2.63V77.43Z"/><path class="cls-1" d="M358,78a4.55,4.55,0,0,0-3.56,1.45,5.69,5.69,0,0,0-1.3,4,5.93,5.93,0,0,0,1.22,4,4.38,4.38,0,0,0,3.5,1.43,9.43,9.43,0,0,0,2.78-.39v.74a9,9,0,0,1-3,.42,5,5,0,0,1-4-1.64,6.62,6.62,0,0,1-1.45-4.56,7.18,7.18,0,0,1,.69-3.23,5,5,0,0,1,2-2.16,5.85,5.85,0,0,1,3-.76,7.2,7.2,0,0,1,3.14.66l-.33.75A6.1,6.1,0,0,0,358,78Zm.65,13.83a1.46,1.46,0,0,1-.55,1.24,2.6,2.6,0,0,1-1.55.41,2.23,2.23,0,0,1-.77-.09v-.73a2.3,2.3,0,0,0,.75.09,1.75,1.75,0,0,0,1-.23.78.78,0,0,0,.34-.66q0-.78-1.59-1l.77-1.43h.78l-.54,1C358.15,90.61,358.61,91.09,358.61,91.84Z"/><path class="cls-1" d="M373.38,83.42A6.74,6.74,0,0,1,372,88a5.51,5.51,0,0,1-7.88,0,6.72,6.72,0,0,1-1.43-4.54,6.63,6.63,0,0,1,1.44-4.52A5,5,0,0,1,368,77.24,4.9,4.9,0,0,1,372,78.9,6.69,6.69,0,0,1,373.38,83.42Zm-9.83,0a6.2,6.2,0,0,0,1.15,4,4.61,4.61,0,0,0,6.62,0,6.22,6.22,0,0,0,1.15-4,6.11,6.11,0,0,0-1.15-4,4.62,4.62,0,0,0-6.6,0A6,6,0,0,0,363.55,83.42Zm5.76-7a1.41,1.41,0,0,1-.62-.15,4,4,0,0,1-.83-.59l-.52-.38a.88.88,0,0,0-.51-.16.78.78,0,0,0-.61.28,2.26,2.26,0,0,0-.4,1h-.6a2.5,2.5,0,0,1,.52-1.43,1.38,1.38,0,0,1,1.12-.52,1.34,1.34,0,0,1,.72.2,5.78,5.78,0,0,1,.68.49l.54.41a.9.9,0,0,0,.51.18.8.8,0,0,0,.63-.3,2.33,2.33,0,0,0,.39-1H371a2.76,2.76,0,0,1-.57,1.45A1.35,1.35,0,0,1,369.31,76.45Z"/><path class="cls-1" d="M382.71,89.45h-6.57v-12h6.57v.77H377v4.55h5.41v.77H377v5.15h5.73Z"/><path class="cls-1" d="M392.06,86.35A2.88,2.88,0,0,1,391,88.73a4.54,4.54,0,0,1-2.94.88,9.26,9.26,0,0,1-3.37-.48v-.84a8.66,8.66,0,0,0,3.31.55,3.75,3.75,0,0,0,2.35-.68,2.16,2.16,0,0,0,.86-1.78,2.08,2.08,0,0,0-.28-1.13,2.76,2.76,0,0,0-.94-.82,11.67,11.67,0,0,0-1.91-.79,6.69,6.69,0,0,1-2.54-1.37,2.94,2.94,0,0,1,.35-4.16,4.19,4.19,0,0,1,2.72-.85,7.89,7.89,0,0,1,3.18.64l-.3.72a7.58,7.58,0,0,0-2.86-.62,3.34,3.34,0,0,0-2.12.61,2,2,0,0,0-.79,1.68,1.94,1.94,0,0,0,1,1.86,11,11,0,0,0,1.89.82,10.11,10.11,0,0,1,2.11.94,3,3,0,0,1,1,1A2.87,2.87,0,0,1,392.06,86.35Z"/><path class="cls-1" d="M134.54,4.74,114,59.89h9.46l5.37-15.25h21l5.49,15.25h9.54L144.31,4.74ZM131.46,36.9l5-14.32a85,85,0,0,0,3-10.1q.38,1.5,1.37,4.73T142.32,22l5.15,15Z"/><path class="cls-1" d="M195,12.26a20.64,20.64,0,0,1,6.36,1,48.24,48.24,0,0,1,5.74,2.25l3.16-7.3a33.81,33.81,0,0,0-15.19-3.45A26.84,26.84,0,0,0,181.5,8.08a21.85,21.85,0,0,0-8.86,9.61,32.94,32.94,0,0,0-3.07,14.64q0,13.29,6.31,20.42T194,59.89a40.28,40.28,0,0,0,14.31-2.39V50c-2.3.71-4.52,1.29-6.64,1.74a31.18,31.18,0,0,1-6.6.68q-7.89,0-12.06-5.06t-4.16-14.93q0-9.43,4.33-14.79T195,12.26Z"/><rect class="cls-1" x="220.31" y="4.74" width="9.02" height="55.14"/><path class="cls-1" d="M281.13,33.63q0,3.06.23,8.51t.3,6.32h-.23l-27-43.72H243.45V59.89h8.19V31.22q0-5.8-.53-12.82L250.92,16h.3l27.12,43.94H289.4V4.74h-8.27Z"/><path class="cls-1" d="M326.7,12.26a20.64,20.64,0,0,1,6.36,1,47.58,47.58,0,0,1,5.74,2.25L342,8.19a33.78,33.78,0,0,0-15.19-3.45,26.84,26.84,0,0,0-13.61,3.34,21.85,21.85,0,0,0-8.86,9.61,32.94,32.94,0,0,0-3.06,14.64q0,13.29,6.3,20.42t18.09,7.14a40.28,40.28,0,0,0,14.31-2.39V50q-3.45,1.07-6.64,1.74a31.18,31.18,0,0,1-6.6.68q-7.89,0-12.06-5.06t-4.16-14.93q0-9.43,4.33-14.79T326.7,12.26Z"/><path class="cls-1" d="M393.48,12Q387,4.75,375,4.74q-12.12,0-18.66,7.11t-6.54,20.37q0,13.28,6.5,20.46t18.63,7.21q12,0,18.52-7.26T400,32.3Q400,19.18,393.48,12Zm-6.76,35.39q-4,5.06-11.78,5.06T363.11,47.3q-4-5.11-4-15t4-14.95q4-5.1,11.88-5.1t11.74,5.1q3.94,5.08,3.94,14.95T386.72,47.35Z"/></g></g></svg>