<svg xmlns="http://www.w3.org/2000/svg" viewBox="0 0 447 446.1"><defs><style>.cls-1{fill:#fff;}</style></defs><title>site</title><g id="Camada_2" data-name="Camada 2"><g id="Camada_1-2" data-name="Camada 1"><path class="cls-1" d="M231.49,446.1c34.18-4.85,64.15-40.53,83-93.22a406,406,0,0,0-83-9.77Z"/><path class="cls-1" d="M286.1,437.72c2-.58,4-1.17,6-1.82,1.69-.54,3.35-1.12,5-1.71q2.94-1,5.87-2.11c1.66-.64,3.31-1.31,5-2l5.68-2.39c1.65-.72,3.28-1.48,4.91-2.24,1.84-.87,3.68-1.76,5.5-2.68q2.4-1.21,4.8-2.5c1.79-1,3.56-1.94,5.33-2.94,1.6-.91,3.14-1.82,4.7-2.75l5.17-3.2c1.53-1,3.06-2,4.57-3,1.68-1.13,3.35-2.31,5-3.49,1.49-1.07,3-2.13,4.41-3.2,1.6-1.23,3.24-2.51,4.85-3.79,1.42-1.13,2.84-2.26,4.24-3.43,1.59-1.32,3.12-2.69,4.67-4.07,1.36-1.2,2.73-2.4,4.05-3.63,1.53-1.43,3-2.9,4.5-4.36,1.29-1.28,2.59-2.53,3.85-3.83l.7-.75a268.58,268.58,0,0,0-54.74-21.07A198.2,198.2,0,0,1,279.1,439.7c.65-.17,1.3-.31,1.94-.47C282.75,438.75,284.43,438.22,286.1,437.72Z"/><path class="cls-1" d="M447,231H351.21a413.76,413.76,0,0,1-16.13,110.52,277.91,277.91,0,0,1,60.63,24.13A223.21,223.21,0,0,0,447,231Z"/><path class="cls-1" d="M231.49,215.06H335.24a399.82,399.82,0,0,0-15.73-106.59,420.65,420.65,0,0,1-88,10.5Z"/><path class="cls-1" d="M231.49,0V103a406,406,0,0,0,83-9.77C295.64,40.53,265.67,4.86,231.49,0Z"/><path class="cls-1" d="M231.49,327.14a420.65,420.65,0,0,1,88,10.5A399.83,399.83,0,0,0,335.24,231H231.49Z"/><path class="cls-1" d="M395.71,80.41a277.41,277.41,0,0,1-60.63,24.13,413.76,413.76,0,0,1,16.13,110.52H447A223.26,223.26,0,0,0,395.71,80.41Z"/><path class="cls-1" d="M384.92,68.29c-.23-.23-.46-.49-.69-.74-1.26-1.3-2.57-2.56-3.86-3.82-1.48-1.47-3-2.94-4.49-4.36-1.32-1.24-2.69-2.4-4.05-3.63-1.54-1.38-3.09-2.76-4.69-4.09-1.38-1.16-2.79-2.28-4.2-3.4-1.6-1.29-3.23-2.58-4.88-3.82-1.44-1.09-2.91-2.14-4.38-3.19-1.67-1.2-3.34-2.4-5-3.54-1.5-1-3-2-4.53-3-1.73-1.11-3.45-2.2-5.21-3.25-1.54-.92-3.1-1.84-4.66-2.72q-2.69-1.53-5.38-3c-1.6-.8-3.2-1.67-4.8-2.47-1.84-.93-3.69-1.82-5.59-2.7q-2.4-1.14-4.87-2.22c-1.89-.84-3.8-1.6-5.71-2.4-1.64-.67-3.28-1.33-4.94-2-1.94-.74-3.91-1.43-5.87-2.11-1.67-.58-3.33-1.17-5-1.71-2-.65-4-1.24-6.05-1.83-1.66-.49-3.33-1-5-1.43-.64-.17-1.3-.31-1.95-.48a198.3,198.3,0,0,1,51.06,82.91A267.78,267.78,0,0,0,384.92,68.29Z"/><path class="cls-1" d="M0,215.06H95.79a414.56,414.56,0,0,1,16.12-110.52A277.53,277.53,0,0,1,51.29,80.41,223.23,223.23,0,0,0,0,215.06Z"/><path class="cls-1" d="M215.51,446.1v-103a406.73,406.73,0,0,0-83,9.77C151.36,405.57,181.33,441.25,215.51,446.1Z"/><path class="cls-1" d="M215.51,231H111.76a399.83,399.83,0,0,0,15.73,106.6,420,420,0,0,1,88-10.5Z"/><path class="cls-1" d="M215.51,0c-34.18,4.86-64.15,40.53-83,93.22a405.34,405.34,0,0,0,83,9.77Z"/><path class="cls-1" d="M215.51,119a420.73,420.73,0,0,1-88-10.5,399.82,399.82,0,0,0-15.73,106.59H215.51Z"/><path class="cls-1" d="M167.88,6.46l-1.95.48c-1.69.45-3.36.95-5,1.44-2,.58-4,1.17-6,1.81-1.7.55-3.37,1.14-5,1.72-2,.69-3.91,1.38-5.84,2.11-1.67.64-3.32,1.3-5,2l-5.68,2.4c-1.65.72-3.28,1.47-4.91,2.23-1.84.87-3.68,1.76-5.5,2.68q-2.4,1.23-4.79,2.5-2.69,1.44-5.33,3-2.4,1.33-4.72,2.75c-1.73,1-3.45,2.12-5.16,3.19-1.53,1-3.06,2-4.57,3-1.68,1.13-3.34,2.31-5,3.5-1.48,1.06-3,2.12-4.42,3.19-1.63,1.23-3.19,2.51-4.84,3.79-1.42,1.13-2.85,2.26-4.24,3.43-1.6,1.32-3.12,2.69-4.66,4-1.36,1.22-2.74,2.4-4.07,3.66-1.52,1.42-3,2.89-4.48,4.35-1.29,1.27-2.6,2.53-3.86,3.83-.23.24-.45.51-.7.76a268.33,268.33,0,0,0,54.74,21.06A198.15,198.15,0,0,1,167.88,6.46Z"/><path class="cls-1" d="M66.62,382.38c1.49,1.46,3,2.94,4.49,4.36,1.33,1.23,2.7,2.4,4.06,3.63,1.55,1.37,3.09,2.75,4.69,4.08,1.38,1.16,2.78,2.28,4.2,3.4,1.6,1.3,3.19,2.58,4.88,3.83,1.44,1.08,2.91,2.12,4.37,3.2,1.67,1.19,3.35,2.39,5,3.54,1.5,1,3,2,4.53,3,1.73,1.11,3.46,2.2,5.21,3.25q2.33,1.39,4.66,2.73c1.79,1,3.58,2,5.39,3,1.59.8,3.19,1.67,4.79,2.47,1.84.93,3.69,1.82,5.59,2.7q2.4,1.14,4.87,2.22c1.89.84,3.8,1.6,5.71,2.4,1.64.67,3.28,1.33,4.94,2,1.94.75,3.91,1.44,5.87,2.12,1.67.58,3.33,1.17,5,1.71,2,.65,4,1.24,6,1.83,1.66.49,3.33,1,5,1.43.65.18,1.3.31,1.95.48a198.3,198.3,0,0,1-51.06-82.91,268.39,268.39,0,0,0-54.74,21.08c.24.24.46.49.69.74C64,379.85,65.32,381.11,66.62,382.38Z"/><path class="cls-1" d="M51.29,365.69a278,278,0,0,1,60.62-24.13A414.56,414.56,0,0,1,95.79,231H0A223.21,223.21,0,0,0,51.29,365.69Z"/></g></g></svg>